G04 Layer_Physical_Order=1*
G04 Layer_Color=255*
%FSAX25Y25*%
%MOIN*%
G70*
G01*
G75*
%ADD10R,0.07087X0.06299*%
%ADD11R,0.06299X0.07087*%
G04:AMPARAMS|DCode=12|XSize=472.44mil|YSize=157.48mil|CornerRadius=39.37mil|HoleSize=0mil|Usage=FLASHONLY|Rotation=0.000|XOffset=0mil|YOffset=0mil|HoleType=Round|Shape=RoundedRectangle|*
%AMROUNDEDRECTD12*
21,1,0.47244,0.07874,0,0,0.0*
21,1,0.39370,0.15748,0,0,0.0*
1,1,0.07874,0.19685,-0.03937*
1,1,0.07874,-0.19685,-0.03937*
1,1,0.07874,-0.19685,0.03937*
1,1,0.07874,0.19685,0.03937*
%
%ADD12ROUNDEDRECTD12*%
%ADD13R,0.47244X0.07500*%
%ADD14O,0.06061X0.02362*%
%ADD15R,0.09055X0.09055*%
%ADD16C,0.03500*%
%ADD17C,0.02500*%
%ADD18C,0.04000*%
%ADD19C,0.05500*%
%ADD20C,0.06000*%
%ADD21C,0.04500*%
%ADD22R,0.11178X0.45900*%
%ADD23R,0.33100X0.13800*%
%ADD24R,0.12598X0.10000*%
%ADD25R,0.10000X0.10000*%
%ADD26C,0.23622*%
%ADD27C,0.05000*%
D10*
X0245600Y0284812D02*
D03*
Y0273788D02*
D03*
X0269700Y0237388D02*
D03*
Y0248412D02*
D03*
X0279100D02*
D03*
Y0237388D02*
D03*
X0286900Y0275512D02*
D03*
Y0264488D02*
D03*
D11*
X0247388Y0254400D02*
D03*
X0258412D02*
D03*
X0253988Y0263700D02*
D03*
X0265012D02*
D03*
X0290112Y0255800D02*
D03*
X0279088D02*
D03*
X0306912Y0275000D02*
D03*
X0295888D02*
D03*
X0307312Y0264500D02*
D03*
X0296288D02*
D03*
X0256188Y0299000D02*
D03*
X0267212D02*
D03*
X0328812Y0238800D02*
D03*
X0317788D02*
D03*
X0349912D02*
D03*
X0338888D02*
D03*
D12*
X0337500Y0304200D02*
D03*
Y0263500D02*
D03*
D13*
Y0269600D02*
D03*
Y0298400D02*
D03*
D14*
X0257500Y0286900D02*
D03*
Y0281900D02*
D03*
Y0276900D02*
D03*
Y0271900D02*
D03*
X0278500Y0286900D02*
D03*
Y0281900D02*
D03*
Y0271900D02*
D03*
Y0276900D02*
D03*
D15*
X0296758Y0298913D02*
D03*
X0279042D02*
D03*
D16*
X0330112Y0238800D02*
X0338888D01*
X0279042Y0298913D02*
Y0305542D01*
X0282000Y0308500D01*
X0328800D01*
X0337700Y0299600D01*
Y0267800D02*
X0349912Y0255588D01*
Y0238800D02*
Y0255588D01*
D17*
X0249900Y0276900D02*
X0256200D01*
X0247188Y0274188D02*
X0249900Y0276900D01*
X0256188Y0299000D02*
X0256200Y0298988D01*
X0277200Y0297071D02*
X0279042Y0298913D01*
X0306312Y0281900D02*
X0306912Y0282500D01*
X0254600Y0265312D02*
Y0270300D01*
X0256200Y0271900D01*
X0278500Y0281900D02*
X0306312D01*
X0277200Y0276900D02*
X0278500D01*
X0285688D01*
X0277200Y0255000D02*
Y0271900D01*
X0245300Y0274188D02*
X0247188D01*
X0247400Y0254412D02*
Y0273788D01*
X0251000Y0282900D02*
X0252000Y0281900D01*
X0257500D01*
X0249000Y0284900D02*
X0250900Y0283000D01*
X0256200Y0286900D02*
Y0298988D01*
X0277200Y0286900D02*
Y0297071D01*
X0270000Y0281900D02*
X0277200D01*
X0245400Y0284900D02*
X0249000D01*
D18*
X0267212Y0299000D02*
X0278954D01*
X0287512Y0275000D02*
X0295888D01*
X0269700Y0237388D02*
X0279100D01*
Y0248412D02*
Y0255788D01*
X0286900Y0264488D02*
X0296276D01*
D19*
X0297671Y0298000D02*
X0307000D01*
X0296758Y0298913D02*
X0297671Y0298000D01*
X0306912Y0267800D02*
Y0275000D01*
Y0282500D01*
Y0297912D01*
D20*
X0290300Y0255000D02*
X0333800D01*
X0339840Y0261040D01*
D21*
X0258412Y0254400D02*
X0268500D01*
X0268700Y0254600D01*
X0305600Y0239000D02*
X0318300D01*
D22*
X0268211Y0270050D02*
D03*
D23*
X0344550Y0255600D02*
D03*
D24*
X0381800Y0276800D02*
D03*
X0381500Y0292100D02*
D03*
X0223400Y0291160D02*
D03*
X0223700Y0275860D02*
D03*
D25*
X0370700Y0274400D02*
D03*
Y0294200D02*
D03*
X0234500Y0293560D02*
D03*
Y0273760D02*
D03*
D26*
X0397000Y0247000D02*
D03*
Y0320500D02*
D03*
X0208000D02*
D03*
Y0247000D02*
D03*
D27*
X0250900Y0283000D02*
D03*
X0307000Y0298000D02*
D03*
X0305100Y0238900D02*
D03*
X0270900Y0282500D02*
D03*
X0265600D02*
D03*
Y0271500D02*
D03*
X0270900D02*
D03*
Y0277000D02*
D03*
X0265600D02*
D03*
Y0288000D02*
D03*
X0270900D02*
D03*
X0355700Y0251600D02*
D03*
X0348500Y0251800D02*
D03*
X0341500Y0251600D02*
D03*
M02*
