G04 Layer_Color=8388736*
%FSAX25Y25*%
%MOIN*%
G70*
G01*
G75*
%ADD41R,0.07887X0.07099*%
%ADD42R,0.07099X0.07887*%
G04:AMPARAMS|DCode=43|XSize=480.44mil|YSize=165.48mil|CornerRadius=43.37mil|HoleSize=0mil|Usage=FLASHONLY|Rotation=0.000|XOffset=0mil|YOffset=0mil|HoleType=Round|Shape=RoundedRectangle|*
%AMROUNDEDRECTD43*
21,1,0.48044,0.07874,0,0,0.0*
21,1,0.39370,0.16548,0,0,0.0*
1,1,0.08674,0.19685,-0.03937*
1,1,0.08674,-0.19685,-0.03937*
1,1,0.08674,-0.19685,0.03937*
1,1,0.08674,0.19685,0.03937*
%
%ADD43ROUNDEDRECTD43*%
%ADD44R,0.48044X0.08300*%
%ADD45O,0.06861X0.03162*%
%ADD46R,0.09855X0.09855*%
%ADD47R,0.13398X0.10800*%
%ADD48R,0.10800X0.10800*%
%ADD49C,0.24422*%
%ADD50C,0.05800*%
D41*
X0245600Y0284812D02*
D03*
Y0273788D02*
D03*
X0269700Y0237388D02*
D03*
Y0248412D02*
D03*
X0279100D02*
D03*
Y0237388D02*
D03*
X0286900Y0275512D02*
D03*
Y0264488D02*
D03*
D42*
X0247388Y0254400D02*
D03*
X0258412D02*
D03*
X0253988Y0263700D02*
D03*
X0265012D02*
D03*
X0290112Y0255800D02*
D03*
X0279088D02*
D03*
X0306912Y0275000D02*
D03*
X0295888D02*
D03*
X0307312Y0264500D02*
D03*
X0296288D02*
D03*
X0256188Y0299000D02*
D03*
X0267212D02*
D03*
X0328812Y0238800D02*
D03*
X0317788D02*
D03*
X0349912D02*
D03*
X0338888D02*
D03*
D43*
X0337500Y0304200D02*
D03*
Y0263500D02*
D03*
D44*
Y0269600D02*
D03*
Y0298400D02*
D03*
D45*
X0257500Y0286900D02*
D03*
Y0281900D02*
D03*
Y0276900D02*
D03*
Y0271900D02*
D03*
X0278500Y0286900D02*
D03*
Y0281900D02*
D03*
Y0271900D02*
D03*
Y0276900D02*
D03*
D46*
X0296758Y0298913D02*
D03*
X0279042D02*
D03*
D47*
X0381800Y0276800D02*
D03*
X0381500Y0292100D02*
D03*
X0223400Y0291160D02*
D03*
X0223700Y0275860D02*
D03*
D48*
X0370700Y0274400D02*
D03*
Y0294200D02*
D03*
X0234500Y0293560D02*
D03*
Y0273760D02*
D03*
D49*
X0397000Y0247000D02*
D03*
Y0320500D02*
D03*
X0208000D02*
D03*
Y0247000D02*
D03*
D50*
X0270900Y0282500D02*
D03*
X0265600D02*
D03*
Y0271500D02*
D03*
X0270900D02*
D03*
Y0277000D02*
D03*
X0265600D02*
D03*
Y0288000D02*
D03*
X0270900D02*
D03*
M02*
