G04 Layer_Color=16711935*
%FSAX25Y25*%
%MOIN*%
G70*
G01*
G75*
%ADD35C,0.01000*%
%ADD53C,0.01500*%
%ADD54C,0.00100*%
D35*
X0203800Y0335000D02*
G03*
X0193400Y0324100I0000250J-0010650D01*
G01*
Y0243000D02*
G03*
X0204300Y0232600I0010650J0000250D01*
G01*
X0411800Y0324600D02*
G03*
X0400900Y0335000I-0010650J-0000250D01*
G01*
X0401400Y0232600D02*
G03*
X0411800Y0243500I-0000250J0010650D01*
G01*
X0234957Y0331653D02*
G03*
X0241504Y0329152I0006443J0007047D01*
G01*
X0233666Y0332970D02*
G03*
X0229123Y0335000I-0004543J-0004068D01*
G01*
X0376104D02*
G03*
X0371561Y0332970I0000000J-0006098D01*
G01*
X0363723Y0329152D02*
G03*
X0370270Y0331653I0000104J0009548D01*
G01*
X0193400Y0242800D02*
Y0324200D01*
X0204100Y0232600D02*
X0401500D01*
X0411800Y0243200D02*
Y0324700D01*
X0376000Y0335000D02*
X0400900D01*
X0203900D02*
X0229123D01*
X0233800Y0332800D02*
X0234900Y0331700D01*
X0233666Y0332970D02*
X0233805Y0332815D01*
X0371422D02*
X0371561Y0332970D01*
X0370327Y0331700D02*
X0371427Y0332800D01*
X0241400Y0329100D02*
X0363700D01*
X0492606Y0427239D02*
Y0421241D01*
X0496605D01*
X0499604Y0425239D02*
X0501603D01*
X0502603Y0424240D01*
Y0421241D01*
X0499604D01*
X0498604Y0422240D01*
X0499604Y0423240D01*
X0502603D01*
X0504602Y0425239D02*
Y0422240D01*
X0505602Y0421241D01*
X0508601D01*
Y0420241D01*
X0507601Y0419241D01*
X0506602D01*
X0508601Y0421241D02*
Y0425239D01*
X0513599Y0421241D02*
X0511600D01*
X0510600Y0422240D01*
Y0424240D01*
X0511600Y0425239D01*
X0513599D01*
X0514599Y0424240D01*
Y0423240D01*
X0510600D01*
X0516599Y0425239D02*
Y0421241D01*
Y0423240D01*
X0517598Y0424240D01*
X0518598Y0425239D01*
X0519597D01*
X0492606Y0343239D02*
X0496605D01*
Y0342239D01*
X0492606Y0338240D01*
Y0337241D01*
X0496605Y0355239D02*
X0494606Y0354239D01*
X0492606Y0352240D01*
Y0350240D01*
X0493606Y0349241D01*
X0495605D01*
X0496605Y0350240D01*
Y0351240D01*
X0495605Y0352240D01*
X0492606D01*
X0496605Y0367239D02*
X0492606D01*
Y0364240D01*
X0494606Y0365239D01*
X0495605D01*
X0496605Y0364240D01*
Y0362240D01*
X0495605Y0361241D01*
X0493606D01*
X0492606Y0362240D01*
X0495605Y0373241D02*
Y0379239D01*
X0492606Y0376240D01*
X0496605D01*
X0492606Y0390239D02*
X0493606Y0391239D01*
X0495605D01*
X0496605Y0390239D01*
Y0389239D01*
X0495605Y0388240D01*
X0494606D01*
X0495605D01*
X0496605Y0387240D01*
Y0386240D01*
X0495605Y0385241D01*
X0493606D01*
X0492606Y0386240D01*
X0496605Y0397241D02*
X0492606D01*
X0496605Y0401239D01*
Y0402239D01*
X0495605Y0403239D01*
X0493606D01*
X0492606Y0402239D01*
Y0409241D02*
X0494606D01*
X0493606D01*
Y0415239D01*
X0492606Y0414239D01*
X0533598Y0421241D02*
Y0427239D01*
X0537596Y0421241D01*
Y0427239D01*
X0540595Y0425239D02*
X0542595D01*
X0543594Y0424240D01*
Y0421241D01*
X0540595D01*
X0539596Y0422240D01*
X0540595Y0423240D01*
X0543594D01*
X0545594Y0421241D02*
Y0425239D01*
X0546593D01*
X0547593Y0424240D01*
Y0421241D01*
Y0424240D01*
X0548593Y0425239D01*
X0549592Y0424240D01*
Y0421241D01*
X0554591D02*
X0552591D01*
X0551592Y0422240D01*
Y0424240D01*
X0552591Y0425239D01*
X0554591D01*
X0555590Y0424240D01*
Y0423240D01*
X0551592D01*
X0533598Y0343239D02*
Y0337241D01*
X0536597D01*
X0537596Y0338240D01*
Y0339240D01*
X0536597Y0340240D01*
X0533598D01*
X0536597D01*
X0537596Y0341239D01*
Y0342239D01*
X0536597Y0343239D01*
X0533598D01*
X0540595Y0337241D02*
X0542595D01*
X0543594Y0338240D01*
Y0340240D01*
X0542595Y0341239D01*
X0540595D01*
X0539596Y0340240D01*
Y0338240D01*
X0540595Y0337241D01*
X0546593Y0342239D02*
Y0341239D01*
X0545594D01*
X0547593D01*
X0546593D01*
Y0338240D01*
X0547593Y0337241D01*
X0551592Y0342239D02*
Y0341239D01*
X0550592D01*
X0552591D01*
X0551592D01*
Y0338240D01*
X0552591Y0337241D01*
X0556590D02*
X0558589D01*
X0559589Y0338240D01*
Y0340240D01*
X0558589Y0341239D01*
X0556590D01*
X0555590Y0340240D01*
Y0338240D01*
X0556590Y0337241D01*
X0561588D02*
Y0341239D01*
X0562588D01*
X0563588Y0340240D01*
Y0337241D01*
Y0340240D01*
X0564587Y0341239D01*
X0565587Y0340240D01*
Y0337241D01*
X0576584Y0343239D02*
X0574584D01*
X0573585Y0342239D01*
Y0338240D01*
X0574584Y0337241D01*
X0576584D01*
X0577583Y0338240D01*
Y0342239D01*
X0576584Y0343239D01*
X0579583Y0341239D02*
X0581582Y0337241D01*
X0583581Y0341239D01*
X0588580Y0337241D02*
X0586580D01*
X0585581Y0338240D01*
Y0340240D01*
X0586580Y0341239D01*
X0588580D01*
X0589579Y0340240D01*
Y0339240D01*
X0585581D01*
X0591579Y0341239D02*
Y0337241D01*
Y0339240D01*
X0592578Y0340240D01*
X0593578Y0341239D01*
X0594578D01*
X0597577Y0337241D02*
X0599576D01*
X0598576D01*
Y0343239D01*
X0597577D01*
X0603575Y0341239D02*
X0605574D01*
X0606574Y0340240D01*
Y0337241D01*
X0603575D01*
X0602575Y0338240D01*
X0603575Y0339240D01*
X0606574D01*
X0608573Y0341239D02*
Y0338240D01*
X0609573Y0337241D01*
X0612572D01*
Y0336241D01*
X0611572Y0335241D01*
X0610573D01*
X0612572Y0337241D02*
Y0341239D01*
X0533598Y0355239D02*
Y0349241D01*
X0536597D01*
X0537596Y0350240D01*
Y0351240D01*
X0536597Y0352240D01*
X0533598D01*
X0536597D01*
X0537596Y0353239D01*
Y0354239D01*
X0536597Y0355239D01*
X0533598D01*
X0540595Y0349241D02*
X0542595D01*
X0543594Y0350240D01*
Y0352240D01*
X0542595Y0353239D01*
X0540595D01*
X0539596Y0352240D01*
Y0350240D01*
X0540595Y0349241D01*
X0546593Y0354239D02*
Y0353239D01*
X0545594D01*
X0547593D01*
X0546593D01*
Y0350240D01*
X0547593Y0349241D01*
X0551592Y0354239D02*
Y0353239D01*
X0550592D01*
X0552591D01*
X0551592D01*
Y0350240D01*
X0552591Y0349241D01*
X0556590D02*
X0558589D01*
X0559589Y0350240D01*
Y0352240D01*
X0558589Y0353239D01*
X0556590D01*
X0555590Y0352240D01*
Y0350240D01*
X0556590Y0349241D01*
X0561588D02*
Y0353239D01*
X0562588D01*
X0563588Y0352240D01*
Y0349241D01*
Y0352240D01*
X0564587Y0353239D01*
X0565587Y0352240D01*
Y0349241D01*
X0577583Y0354239D02*
X0576584Y0355239D01*
X0574584D01*
X0573585Y0354239D01*
Y0353239D01*
X0574584Y0352240D01*
X0576584D01*
X0577583Y0351240D01*
Y0350240D01*
X0576584Y0349241D01*
X0574584D01*
X0573585Y0350240D01*
X0580582Y0349241D02*
X0582582D01*
X0583581Y0350240D01*
Y0352240D01*
X0582582Y0353239D01*
X0580582D01*
X0579583Y0352240D01*
Y0350240D01*
X0580582Y0349241D01*
X0585581D02*
X0587580D01*
X0586580D01*
Y0355239D01*
X0585581D01*
X0594578D02*
Y0349241D01*
X0591579D01*
X0590579Y0350240D01*
Y0352240D01*
X0591579Y0353239D01*
X0594578D01*
X0599576Y0349241D02*
X0597577D01*
X0596577Y0350240D01*
Y0352240D01*
X0597577Y0353239D01*
X0599576D01*
X0600576Y0352240D01*
Y0351240D01*
X0596577D01*
X0602575Y0353239D02*
Y0349241D01*
Y0351240D01*
X0603575Y0352240D01*
X0604575Y0353239D01*
X0605574D01*
X0533598Y0367239D02*
Y0361241D01*
X0536597D01*
X0537596Y0362240D01*
Y0363240D01*
X0536597Y0364240D01*
X0533598D01*
X0536597D01*
X0537596Y0365239D01*
Y0366239D01*
X0536597Y0367239D01*
X0533598D01*
X0540595Y0361241D02*
X0542595D01*
X0543594Y0362240D01*
Y0364240D01*
X0542595Y0365239D01*
X0540595D01*
X0539596Y0364240D01*
Y0362240D01*
X0540595Y0361241D01*
X0546593Y0366239D02*
Y0365239D01*
X0545594D01*
X0547593D01*
X0546593D01*
Y0362240D01*
X0547593Y0361241D01*
X0551592Y0366239D02*
Y0365239D01*
X0550592D01*
X0552591D01*
X0551592D01*
Y0362240D01*
X0552591Y0361241D01*
X0556590D02*
X0558589D01*
X0559589Y0362240D01*
Y0364240D01*
X0558589Y0365239D01*
X0556590D01*
X0555590Y0364240D01*
Y0362240D01*
X0556590Y0361241D01*
X0561588D02*
Y0365239D01*
X0562588D01*
X0563588Y0364240D01*
Y0361241D01*
Y0364240D01*
X0564587Y0365239D01*
X0565587Y0364240D01*
Y0361241D01*
X0573585Y0367239D02*
Y0361241D01*
X0577583D01*
X0580582Y0365239D02*
X0582582D01*
X0583581Y0364240D01*
Y0361241D01*
X0580582D01*
X0579583Y0362240D01*
X0580582Y0363240D01*
X0583581D01*
X0585581Y0365239D02*
Y0362240D01*
X0586580Y0361241D01*
X0589579D01*
Y0360241D01*
X0588580Y0359241D01*
X0587580D01*
X0589579Y0361241D02*
Y0365239D01*
X0594578Y0361241D02*
X0592578D01*
X0591579Y0362240D01*
Y0364240D01*
X0592578Y0365239D01*
X0594578D01*
X0595577Y0364240D01*
Y0363240D01*
X0591579D01*
X0597577Y0365239D02*
Y0361241D01*
Y0363240D01*
X0598576Y0364240D01*
X0599576Y0365239D01*
X0600576D01*
X0533598Y0379239D02*
Y0373241D01*
X0536597D01*
X0537596Y0374240D01*
Y0378239D01*
X0536597Y0379239D01*
X0533598D01*
X0539596Y0373241D02*
X0541595D01*
X0540595D01*
Y0377239D01*
X0539596D01*
X0547593Y0373241D02*
X0545594D01*
X0544594Y0374240D01*
Y0376240D01*
X0545594Y0377239D01*
X0547593D01*
X0548593Y0376240D01*
Y0375240D01*
X0544594D01*
X0550592Y0373241D02*
X0552591D01*
X0551592D01*
Y0379239D01*
X0550592D01*
X0558589Y0373241D02*
X0556590D01*
X0555590Y0374240D01*
Y0376240D01*
X0556590Y0377239D01*
X0558589D01*
X0559589Y0376240D01*
Y0375240D01*
X0555590D01*
X0565587Y0377239D02*
X0562588D01*
X0561588Y0376240D01*
Y0374240D01*
X0562588Y0373241D01*
X0565587D01*
X0568586Y0378239D02*
Y0377239D01*
X0567587D01*
X0569586D01*
X0568586D01*
Y0374240D01*
X0569586Y0373241D01*
X0572585Y0377239D02*
Y0373241D01*
Y0375240D01*
X0573585Y0376240D01*
X0574584Y0377239D01*
X0575584D01*
X0578583Y0373241D02*
X0580582D01*
X0579583D01*
Y0377239D01*
X0578583D01*
X0587580D02*
X0584581D01*
X0583581Y0376240D01*
Y0374240D01*
X0584581Y0373241D01*
X0587580D01*
X0589579D02*
X0591579D01*
X0590579D01*
Y0379239D01*
X0589579Y0378239D01*
X0533598Y0391239D02*
X0537596D01*
X0535597D01*
Y0385241D01*
X0540595D02*
X0542595D01*
X0543594Y0386240D01*
Y0388240D01*
X0542595Y0389239D01*
X0540595D01*
X0539596Y0388240D01*
Y0386240D01*
X0540595Y0385241D01*
X0545594Y0383241D02*
Y0389239D01*
X0548593D01*
X0549592Y0388240D01*
Y0386240D01*
X0548593Y0385241D01*
X0545594D01*
X0557590Y0391239D02*
Y0385241D01*
X0561588D01*
X0564587Y0389239D02*
X0566587D01*
X0567587Y0388240D01*
Y0385241D01*
X0564587D01*
X0563588Y0386240D01*
X0564587Y0387240D01*
X0567587D01*
X0569586Y0389239D02*
Y0386240D01*
X0570586Y0385241D01*
X0573585D01*
Y0384241D01*
X0572585Y0383241D01*
X0571585D01*
X0573585Y0385241D02*
Y0389239D01*
X0578583Y0385241D02*
X0576584D01*
X0575584Y0386240D01*
Y0388240D01*
X0576584Y0389239D01*
X0578583D01*
X0579583Y0388240D01*
Y0387240D01*
X0575584D01*
X0581582Y0389239D02*
Y0385241D01*
Y0387240D01*
X0582582Y0388240D01*
X0583581Y0389239D01*
X0584581D01*
X0533598Y0403239D02*
X0537596D01*
X0535597D01*
Y0397241D01*
X0540595D02*
X0542595D01*
X0543594Y0398240D01*
Y0400240D01*
X0542595Y0401239D01*
X0540595D01*
X0539596Y0400240D01*
Y0398240D01*
X0540595Y0397241D01*
X0545594Y0395241D02*
Y0401239D01*
X0548593D01*
X0549592Y0400240D01*
Y0398240D01*
X0548593Y0397241D01*
X0545594D01*
X0561588Y0402239D02*
X0560589Y0403239D01*
X0558590D01*
X0557590Y0402239D01*
Y0401239D01*
X0558590Y0400240D01*
X0560589D01*
X0561588Y0399240D01*
Y0398240D01*
X0560589Y0397241D01*
X0558590D01*
X0557590Y0398240D01*
X0564587Y0397241D02*
X0566587D01*
X0567587Y0398240D01*
Y0400240D01*
X0566587Y0401239D01*
X0564587D01*
X0563588Y0400240D01*
Y0398240D01*
X0564587Y0397241D01*
X0569586D02*
X0571585D01*
X0570586D01*
Y0403239D01*
X0569586D01*
X0578583D02*
Y0397241D01*
X0575584D01*
X0574584Y0398240D01*
Y0400240D01*
X0575584Y0401239D01*
X0578583D01*
X0583581Y0397241D02*
X0581582D01*
X0580582Y0398240D01*
Y0400240D01*
X0581582Y0401239D01*
X0583581D01*
X0584581Y0400240D01*
Y0399240D01*
X0580582D01*
X0586580Y0401239D02*
Y0397241D01*
Y0399240D01*
X0587580Y0400240D01*
X0588580Y0401239D01*
X0589579D01*
X0533598Y0415239D02*
X0537596D01*
X0535597D01*
Y0409241D01*
X0540595D02*
X0542595D01*
X0543594Y0410240D01*
Y0412240D01*
X0542595Y0413239D01*
X0540595D01*
X0539596Y0412240D01*
Y0410240D01*
X0540595Y0409241D01*
X0545594Y0407241D02*
Y0413239D01*
X0548593D01*
X0549592Y0412240D01*
Y0410240D01*
X0548593Y0409241D01*
X0545594D01*
X0560589Y0415239D02*
X0558590D01*
X0557590Y0414239D01*
Y0410240D01*
X0558590Y0409241D01*
X0560589D01*
X0561588Y0410240D01*
Y0414239D01*
X0560589Y0415239D01*
X0563588Y0413239D02*
X0565587Y0409241D01*
X0567587Y0413239D01*
X0572585Y0409241D02*
X0570586D01*
X0569586Y0410240D01*
Y0412240D01*
X0570586Y0413239D01*
X0572585D01*
X0573585Y0412240D01*
Y0411240D01*
X0569586D01*
X0575584Y0413239D02*
Y0409241D01*
Y0411240D01*
X0576584Y0412240D01*
X0577583Y0413239D01*
X0578583D01*
X0581582Y0409241D02*
X0583581D01*
X0582582D01*
Y0415239D01*
X0581582D01*
X0587580Y0413239D02*
X0589579D01*
X0590579Y0412240D01*
Y0409241D01*
X0587580D01*
X0586580Y0410240D01*
X0587580Y0411240D01*
X0590579D01*
X0592578Y0413239D02*
Y0410240D01*
X0593578Y0409241D01*
X0596577D01*
Y0408241D01*
X0595577Y0407241D01*
X0594578D01*
X0596577Y0409241D02*
Y0413239D01*
X0626572Y0421241D02*
Y0427239D01*
X0628571Y0425239D01*
X0630571Y0427239D01*
Y0421241D01*
X0633570Y0425239D02*
X0635569D01*
X0636569Y0424240D01*
Y0421241D01*
X0633570D01*
X0632570Y0422240D01*
X0633570Y0423240D01*
X0636569D01*
X0639568Y0426239D02*
Y0425239D01*
X0638568D01*
X0640567D01*
X0639568D01*
Y0422240D01*
X0640567Y0421241D01*
X0646565D02*
X0644566D01*
X0643567Y0422240D01*
Y0424240D01*
X0644566Y0425239D01*
X0646565D01*
X0647565Y0424240D01*
Y0423240D01*
X0643567D01*
X0649565Y0425239D02*
Y0421241D01*
Y0423240D01*
X0650564Y0424240D01*
X0651564Y0425239D01*
X0652564D01*
X0655563Y0421241D02*
X0657562D01*
X0656562D01*
Y0425239D01*
X0655563D01*
X0661561D02*
X0663560D01*
X0664560Y0424240D01*
Y0421241D01*
X0661561D01*
X0660561Y0422240D01*
X0661561Y0423240D01*
X0664560D01*
X0666559Y0421241D02*
X0668558D01*
X0667559D01*
Y0427239D01*
X0666559D01*
X0630571Y0354239D02*
X0629571Y0355239D01*
X0627572D01*
X0626572Y0354239D01*
Y0353239D01*
X0627572Y0352240D01*
X0629571D01*
X0630571Y0351240D01*
Y0350240D01*
X0629571Y0349241D01*
X0627572D01*
X0626572Y0350240D01*
X0633570Y0349241D02*
X0635569D01*
X0636569Y0350240D01*
Y0352240D01*
X0635569Y0353239D01*
X0633570D01*
X0632570Y0352240D01*
Y0350240D01*
X0633570Y0349241D01*
X0638568D02*
X0640567D01*
X0639568D01*
Y0355239D01*
X0638568D01*
X0647565D02*
Y0349241D01*
X0644566D01*
X0643567Y0350240D01*
Y0352240D01*
X0644566Y0353239D01*
X0647565D01*
X0652564Y0349241D02*
X0650564D01*
X0649565Y0350240D01*
Y0352240D01*
X0650564Y0353239D01*
X0652564D01*
X0653563Y0352240D01*
Y0351240D01*
X0649565D01*
X0655563Y0353239D02*
Y0349241D01*
Y0351240D01*
X0656562Y0352240D01*
X0657562Y0353239D01*
X0658562D01*
X0667559Y0349241D02*
Y0355239D01*
X0670558D01*
X0671557Y0354239D01*
Y0352240D01*
X0670558Y0351240D01*
X0667559D01*
X0669558D02*
X0671557Y0349241D01*
X0676556D02*
X0674556D01*
X0673557Y0350240D01*
Y0352240D01*
X0674556Y0353239D01*
X0676556D01*
X0677556Y0352240D01*
Y0351240D01*
X0673557D01*
X0679555Y0349241D02*
X0682554D01*
X0683554Y0350240D01*
X0682554Y0351240D01*
X0680554D01*
X0679555Y0352240D01*
X0680554Y0353239D01*
X0683554D01*
X0685553Y0349241D02*
X0687552D01*
X0686553D01*
Y0353239D01*
X0685553D01*
X0690551Y0349241D02*
X0693550D01*
X0694550Y0350240D01*
X0693550Y0351240D01*
X0691551D01*
X0690551Y0352240D01*
X0691551Y0353239D01*
X0694550D01*
X0697549Y0354239D02*
Y0353239D01*
X0696549D01*
X0698549D01*
X0697549D01*
Y0350240D01*
X0698549Y0349241D01*
X0630571Y0366239D02*
X0629571Y0367239D01*
X0627572D01*
X0626572Y0366239D01*
Y0362240D01*
X0627572Y0361241D01*
X0629571D01*
X0630571Y0362240D01*
X0633570Y0361241D02*
X0635569D01*
X0636569Y0362240D01*
Y0364240D01*
X0635569Y0365239D01*
X0633570D01*
X0632570Y0364240D01*
Y0362240D01*
X0633570Y0361241D01*
X0638568Y0359241D02*
Y0365239D01*
X0641567D01*
X0642567Y0364240D01*
Y0362240D01*
X0641567Y0361241D01*
X0638568D01*
X0644566Y0359241D02*
Y0365239D01*
X0647565D01*
X0648565Y0364240D01*
Y0362240D01*
X0647565Y0361241D01*
X0644566D01*
X0653563D02*
X0651564D01*
X0650564Y0362240D01*
Y0364240D01*
X0651564Y0365239D01*
X0653563D01*
X0654563Y0364240D01*
Y0363240D01*
X0650564D01*
X0656562Y0365239D02*
Y0361241D01*
Y0363240D01*
X0657562Y0364240D01*
X0658562Y0365239D01*
X0659561D01*
X0630571Y0379239D02*
X0626572D01*
Y0376240D01*
X0628571D01*
X0626572D01*
Y0373241D01*
X0632570D02*
Y0379239D01*
X0635569D01*
X0636569Y0378239D01*
Y0376240D01*
X0635569Y0375240D01*
X0632570D01*
X0634569D02*
X0636569Y0373241D01*
X0638568Y0376240D02*
X0642567D01*
X0647565Y0373241D02*
Y0379239D01*
X0644566Y0376240D01*
X0648565D01*
X0630571Y0390239D02*
X0629571Y0391239D01*
X0627572D01*
X0626572Y0390239D01*
Y0386240D01*
X0627572Y0385241D01*
X0629571D01*
X0630571Y0386240D01*
X0633570Y0385241D02*
X0635569D01*
X0636569Y0386240D01*
Y0388240D01*
X0635569Y0389239D01*
X0633570D01*
X0632570Y0388240D01*
Y0386240D01*
X0633570Y0385241D01*
X0638568Y0383241D02*
Y0389239D01*
X0641567D01*
X0642567Y0388240D01*
Y0386240D01*
X0641567Y0385241D01*
X0638568D01*
X0644566Y0383241D02*
Y0389239D01*
X0647565D01*
X0648565Y0388240D01*
Y0386240D01*
X0647565Y0385241D01*
X0644566D01*
X0653563D02*
X0651564D01*
X0650564Y0386240D01*
Y0388240D01*
X0651564Y0389239D01*
X0653563D01*
X0654563Y0388240D01*
Y0387240D01*
X0650564D01*
X0656562Y0389239D02*
Y0385241D01*
Y0387240D01*
X0657562Y0388240D01*
X0658562Y0389239D01*
X0659561D01*
X0630571Y0402239D02*
X0629571Y0403239D01*
X0627572D01*
X0626572Y0402239D01*
Y0401239D01*
X0627572Y0400240D01*
X0629571D01*
X0630571Y0399240D01*
Y0398240D01*
X0629571Y0397241D01*
X0627572D01*
X0626572Y0398240D01*
X0633570Y0397241D02*
X0635569D01*
X0636569Y0398240D01*
Y0400240D01*
X0635569Y0401239D01*
X0633570D01*
X0632570Y0400240D01*
Y0398240D01*
X0633570Y0397241D01*
X0638568D02*
X0640567D01*
X0639568D01*
Y0403239D01*
X0638568D01*
X0647565D02*
Y0397241D01*
X0644566D01*
X0643567Y0398240D01*
Y0400240D01*
X0644566Y0401239D01*
X0647565D01*
X0652564Y0397241D02*
X0650564D01*
X0649565Y0398240D01*
Y0400240D01*
X0650564Y0401239D01*
X0652564D01*
X0653563Y0400240D01*
Y0399240D01*
X0649565D01*
X0655563Y0401239D02*
Y0397241D01*
Y0399240D01*
X0656562Y0400240D01*
X0657562Y0401239D01*
X0658562D01*
X0667559Y0397241D02*
Y0403239D01*
X0670558D01*
X0671557Y0402239D01*
Y0400240D01*
X0670558Y0399240D01*
X0667559D01*
X0669558D02*
X0671557Y0397241D01*
X0676556D02*
X0674556D01*
X0673557Y0398240D01*
Y0400240D01*
X0674556Y0401239D01*
X0676556D01*
X0677556Y0400240D01*
Y0399240D01*
X0673557D01*
X0679555Y0397241D02*
X0682554D01*
X0683554Y0398240D01*
X0682554Y0399240D01*
X0680554D01*
X0679555Y0400240D01*
X0680554Y0401239D01*
X0683554D01*
X0685553Y0397241D02*
X0687552D01*
X0686553D01*
Y0401239D01*
X0685553D01*
X0690551Y0397241D02*
X0693550D01*
X0694550Y0398240D01*
X0693550Y0399240D01*
X0691551D01*
X0690551Y0400240D01*
X0691551Y0401239D01*
X0694550D01*
X0697549Y0402239D02*
Y0401239D01*
X0696549D01*
X0698549D01*
X0697549D01*
Y0398240D01*
X0698549Y0397241D01*
X0712549Y0427239D02*
X0716547D01*
X0714548D01*
Y0421241D01*
X0718547Y0427239D02*
Y0421241D01*
Y0424240D01*
X0719546Y0425239D01*
X0721546D01*
X0722545Y0424240D01*
Y0421241D01*
X0724545D02*
X0726544D01*
X0725545D01*
Y0425239D01*
X0724545D01*
X0733542D02*
X0730543D01*
X0729543Y0424240D01*
Y0422240D01*
X0730543Y0421241D01*
X0733542D01*
X0735541D02*
Y0427239D01*
Y0423240D02*
X0738540Y0425239D01*
X0735541Y0423240D02*
X0738540Y0421241D01*
X0741539D02*
Y0425239D01*
X0744538D01*
X0745538Y0424240D01*
Y0421241D01*
X0750536D02*
X0748537D01*
X0747537Y0422240D01*
Y0424240D01*
X0748537Y0425239D01*
X0750536D01*
X0751536Y0424240D01*
Y0423240D01*
X0747537D01*
X0753535Y0421241D02*
X0756534D01*
X0757534Y0422240D01*
X0756534Y0423240D01*
X0754535D01*
X0753535Y0424240D01*
X0754535Y0425239D01*
X0757534D01*
X0759534Y0421241D02*
X0762533D01*
X0763532Y0422240D01*
X0762533Y0423240D01*
X0760533D01*
X0759534Y0424240D01*
X0760533Y0425239D01*
X0763532D01*
X0712549Y0354239D02*
X0713548Y0355239D01*
X0715548D01*
X0716547Y0354239D01*
Y0350240D01*
X0715548Y0349241D01*
X0713548D01*
X0712549Y0350240D01*
Y0354239D01*
X0718547Y0349241D02*
Y0350240D01*
X0719546D01*
Y0349241D01*
X0718547D01*
X0726544D02*
Y0355239D01*
X0723545Y0352240D01*
X0727544D01*
X0729543Y0354239D02*
X0730543Y0355239D01*
X0732542D01*
X0733542Y0354239D01*
Y0350240D01*
X0732542Y0349241D01*
X0730543D01*
X0729543Y0350240D01*
Y0354239D01*
X0735541Y0349241D02*
Y0353239D01*
X0736541D01*
X0737541Y0352240D01*
Y0349241D01*
Y0352240D01*
X0738540Y0353239D01*
X0739540Y0352240D01*
Y0349241D01*
X0741539D02*
X0743539D01*
X0742539D01*
Y0353239D01*
X0741539D01*
X0746538Y0349241D02*
X0748537D01*
X0747537D01*
Y0355239D01*
X0746538D01*
X0712549Y0361241D02*
X0714548D01*
X0713548D01*
Y0367239D01*
X0712549Y0366239D01*
X0717547Y0361241D02*
Y0362240D01*
X0718547D01*
Y0361241D01*
X0717547D01*
X0725545D02*
Y0367239D01*
X0722545Y0364240D01*
X0726544D01*
X0728544Y0366239D02*
X0729543Y0367239D01*
X0731542D01*
X0732542Y0366239D01*
Y0362240D01*
X0731542Y0361241D01*
X0729543D01*
X0728544Y0362240D01*
Y0366239D01*
X0734542Y0361241D02*
Y0365239D01*
X0735541D01*
X0736541Y0364240D01*
Y0361241D01*
Y0364240D01*
X0737541Y0365239D01*
X0738540Y0364240D01*
Y0361241D01*
X0740540D02*
X0742539D01*
X0741539D01*
Y0365239D01*
X0740540D01*
X0745538Y0361241D02*
X0747537D01*
X0746538D01*
Y0367239D01*
X0745538D01*
X0712549Y0373241D02*
X0714548D01*
X0713548D01*
Y0379239D01*
X0712549Y0378239D01*
X0721546Y0373241D02*
X0717547D01*
X0721546Y0377239D01*
Y0378239D01*
X0720546Y0379239D01*
X0718547D01*
X0717547Y0378239D01*
X0723545Y0373241D02*
Y0374240D01*
X0724545D01*
Y0373241D01*
X0723545D01*
X0732542Y0379239D02*
X0730543Y0378239D01*
X0728544Y0376240D01*
Y0374240D01*
X0729543Y0373241D01*
X0731542D01*
X0732542Y0374240D01*
Y0375240D01*
X0731542Y0376240D01*
X0728544D01*
X0734542Y0378239D02*
X0735541Y0379239D01*
X0737541D01*
X0738540Y0378239D01*
Y0374240D01*
X0737541Y0373241D01*
X0735541D01*
X0734542Y0374240D01*
Y0378239D01*
X0740540Y0373241D02*
Y0377239D01*
X0741539D01*
X0742539Y0376240D01*
Y0373241D01*
Y0376240D01*
X0743539Y0377239D01*
X0744538Y0376240D01*
Y0373241D01*
X0746538D02*
X0748537D01*
X0747537D01*
Y0377239D01*
X0746538D01*
X0751536Y0373241D02*
X0753535D01*
X0752536D01*
Y0379239D01*
X0751536D01*
X0712549Y0385241D02*
X0714548D01*
X0713548D01*
Y0391239D01*
X0712549Y0390239D01*
X0717547Y0385241D02*
Y0386240D01*
X0718547D01*
Y0385241D01*
X0717547D01*
X0725545D02*
Y0391239D01*
X0722545Y0388240D01*
X0726544D01*
X0728544Y0390239D02*
X0729543Y0391239D01*
X0731542D01*
X0732542Y0390239D01*
Y0386240D01*
X0731542Y0385241D01*
X0729543D01*
X0728544Y0386240D01*
Y0390239D01*
X0734542Y0385241D02*
Y0389239D01*
X0735541D01*
X0736541Y0388240D01*
Y0385241D01*
Y0388240D01*
X0737541Y0389239D01*
X0738540Y0388240D01*
Y0385241D01*
X0740540D02*
X0742539D01*
X0741539D01*
Y0389239D01*
X0740540D01*
X0745538Y0385241D02*
X0747537D01*
X0746538D01*
Y0391239D01*
X0745538D01*
X0712549Y0402239D02*
X0713548Y0403239D01*
X0715548D01*
X0716547Y0402239D01*
Y0398240D01*
X0715548Y0397241D01*
X0713548D01*
X0712549Y0398240D01*
Y0402239D01*
X0718547Y0397241D02*
Y0398240D01*
X0719546D01*
Y0397241D01*
X0718547D01*
X0726544D02*
Y0403239D01*
X0723545Y0400240D01*
X0727544D01*
X0729543Y0402239D02*
X0730543Y0403239D01*
X0732542D01*
X0733542Y0402239D01*
Y0398240D01*
X0732542Y0397241D01*
X0730543D01*
X0729543Y0398240D01*
Y0402239D01*
X0735541Y0397241D02*
Y0401239D01*
X0736541D01*
X0737541Y0400240D01*
Y0397241D01*
Y0400240D01*
X0738540Y0401239D01*
X0739540Y0400240D01*
Y0397241D01*
X0741539D02*
X0743539D01*
X0742539D01*
Y0401239D01*
X0741539D01*
X0746538Y0397241D02*
X0748537D01*
X0747537D01*
Y0403239D01*
X0746538D01*
X0781531Y0426239D02*
X0780531Y0427239D01*
X0778532D01*
X0777532Y0426239D01*
Y0422240D01*
X0778532Y0421241D01*
X0780531D01*
X0781531Y0422240D01*
X0784530Y0421241D02*
X0786529D01*
X0787529Y0422240D01*
Y0424240D01*
X0786529Y0425239D01*
X0784530D01*
X0783530Y0424240D01*
Y0422240D01*
X0784530Y0421241D01*
X0789528D02*
Y0425239D01*
X0792527D01*
X0793527Y0424240D01*
Y0421241D01*
X0795526D02*
X0798525D01*
X0799525Y0422240D01*
X0798525Y0423240D01*
X0796526D01*
X0795526Y0424240D01*
X0796526Y0425239D01*
X0799525D01*
X0802524Y0426239D02*
Y0425239D01*
X0801524D01*
X0803524D01*
X0802524D01*
Y0422240D01*
X0803524Y0421241D01*
X0807522Y0425239D02*
X0809522D01*
X0810522Y0424240D01*
Y0421241D01*
X0807522D01*
X0806523Y0422240D01*
X0807522Y0423240D01*
X0810522D01*
X0812521Y0421241D02*
Y0425239D01*
X0815520D01*
X0816520Y0424240D01*
Y0421241D01*
X0819519Y0426239D02*
Y0425239D01*
X0818519D01*
X0820518D01*
X0819519D01*
Y0422240D01*
X0820518Y0421241D01*
X0777532Y0354239D02*
X0778532Y0355239D01*
X0780531D01*
X0781531Y0354239D01*
Y0353239D01*
X0780531Y0352240D01*
X0779531D01*
X0780531D01*
X0781531Y0351240D01*
Y0350240D01*
X0780531Y0349241D01*
X0778532D01*
X0777532Y0350240D01*
X0783530Y0349241D02*
Y0350240D01*
X0784530D01*
Y0349241D01*
X0783530D01*
X0792527Y0355239D02*
X0788529D01*
Y0352240D01*
X0790528Y0353239D01*
X0791528D01*
X0792527Y0352240D01*
Y0350240D01*
X0791528Y0349241D01*
X0789528D01*
X0788529Y0350240D01*
X0780531Y0373241D02*
Y0379239D01*
X0777532Y0376240D01*
X0781531D01*
X0783530Y0373241D02*
Y0374240D01*
X0784530D01*
Y0373241D01*
X0783530D01*
X0788529Y0378239D02*
X0789528Y0379239D01*
X0791528D01*
X0792527Y0378239D01*
Y0377239D01*
X0791528Y0376240D01*
X0792527Y0375240D01*
Y0374240D01*
X0791528Y0373241D01*
X0789528D01*
X0788529Y0374240D01*
Y0375240D01*
X0789528Y0376240D01*
X0788529Y0377239D01*
Y0378239D01*
X0789528Y0376240D02*
X0791528D01*
X0777532Y0402239D02*
X0778532Y0403239D01*
X0780531D01*
X0781531Y0402239D01*
Y0401239D01*
X0780531Y0400240D01*
X0779531D01*
X0780531D01*
X0781531Y0399240D01*
Y0398240D01*
X0780531Y0397241D01*
X0778532D01*
X0777532Y0398240D01*
X0783530Y0397241D02*
Y0398240D01*
X0784530D01*
Y0397241D01*
X0783530D01*
X0792527Y0403239D02*
X0788529D01*
Y0400240D01*
X0790528Y0401239D01*
X0791528D01*
X0792527Y0400240D01*
Y0398240D01*
X0791528Y0397241D01*
X0789528D01*
X0788529Y0398240D01*
X0834518Y0427239D02*
Y0421241D01*
X0837517D01*
X0838517Y0422240D01*
Y0423240D01*
X0837517Y0424240D01*
X0834518D01*
X0837517D01*
X0838517Y0425239D01*
Y0426239D01*
X0837517Y0427239D01*
X0834518D01*
X0841516Y0421241D02*
X0843515D01*
X0844515Y0422240D01*
Y0424240D01*
X0843515Y0425239D01*
X0841516D01*
X0840516Y0424240D01*
Y0422240D01*
X0841516Y0421241D01*
X0847514Y0425239D02*
X0849513D01*
X0850513Y0424240D01*
Y0421241D01*
X0847514D01*
X0846514Y0422240D01*
X0847514Y0423240D01*
X0850513D01*
X0852512Y0425239D02*
Y0421241D01*
Y0423240D01*
X0853512Y0424240D01*
X0854512Y0425239D01*
X0855511D01*
X0862509Y0427239D02*
Y0421241D01*
X0859510D01*
X0858510Y0422240D01*
Y0424240D01*
X0859510Y0425239D01*
X0862509D01*
X0870507Y0427239D02*
Y0421241D01*
X0874505D01*
X0877504Y0425239D02*
X0879504D01*
X0880503Y0424240D01*
Y0421241D01*
X0877504D01*
X0876505Y0422240D01*
X0877504Y0423240D01*
X0880503D01*
X0882503Y0425239D02*
Y0422240D01*
X0883502Y0421241D01*
X0886502D01*
Y0420241D01*
X0885502Y0419241D01*
X0884502D01*
X0886502Y0421241D02*
Y0425239D01*
X0891500Y0421241D02*
X0889501D01*
X0888501Y0422240D01*
Y0424240D01*
X0889501Y0425239D01*
X0891500D01*
X0892500Y0424240D01*
Y0423240D01*
X0888501D01*
X0894499Y0425239D02*
Y0421241D01*
Y0423240D01*
X0895499Y0424240D01*
X0896498Y0425239D01*
X0897498D01*
X0910494Y0426239D02*
X0909494Y0427239D01*
X0907495D01*
X0906495Y0426239D01*
Y0425239D01*
X0907495Y0424240D01*
X0909494D01*
X0910494Y0423240D01*
Y0422240D01*
X0909494Y0421241D01*
X0907495D01*
X0906495Y0422240D01*
X0913493Y0426239D02*
Y0425239D01*
X0912493D01*
X0914492D01*
X0913493D01*
Y0422240D01*
X0914492Y0421241D01*
X0918491Y0425239D02*
X0920490D01*
X0921490Y0424240D01*
Y0421241D01*
X0918491D01*
X0917492Y0422240D01*
X0918491Y0423240D01*
X0921490D01*
X0927488Y0425239D02*
X0924489D01*
X0923489Y0424240D01*
Y0422240D01*
X0924489Y0421241D01*
X0927488D01*
X0929488D02*
Y0427239D01*
Y0423240D02*
X0932487Y0425239D01*
X0929488Y0423240D02*
X0932487Y0421241D01*
D53*
X0486606Y0418241D02*
X0940487D01*
X0486606Y0430241D02*
X0940487D01*
X0486606Y0334241D02*
Y0430241D01*
Y0334241D02*
X0527598D01*
X0486606Y0346241D02*
X0527598D01*
X0486606Y0358241D02*
X0527598D01*
X0486606Y0370241D02*
X0527598D01*
X0486606Y0382241D02*
X0527598D01*
X0486606Y0394241D02*
X0527598D01*
X0486606Y0406241D02*
X0527598D01*
Y0334241D02*
Y0430241D01*
Y0334241D02*
X0620572D01*
X0527598Y0346241D02*
X0620572D01*
X0527598Y0358241D02*
X0620572D01*
X0527598Y0370241D02*
X0620572D01*
X0527598Y0382241D02*
X0620572D01*
X0527598Y0394241D02*
X0620572D01*
X0527598Y0406241D02*
X0620572D01*
Y0334241D02*
Y0430241D01*
Y0334241D02*
X0706549D01*
X0620572Y0346241D02*
X0706549D01*
X0620572Y0358241D02*
X0706549D01*
X0620572Y0370241D02*
X0706549D01*
X0620572Y0382241D02*
X0706549D01*
X0620572Y0394241D02*
X0706549D01*
X0620572Y0406241D02*
X0706549D01*
Y0334241D02*
Y0430241D01*
Y0334241D02*
X0771532D01*
X0706549Y0346241D02*
X0771532D01*
X0706549Y0358241D02*
X0771532D01*
X0706549Y0370241D02*
X0771532D01*
X0706549Y0382241D02*
X0771532D01*
X0706549Y0394241D02*
X0771532D01*
X0706549Y0406241D02*
X0771532D01*
Y0334241D02*
Y0430241D01*
Y0334241D02*
X0828518D01*
X0771532Y0346241D02*
X0828518D01*
X0771532Y0358241D02*
X0828518D01*
X0771532Y0370241D02*
X0828518D01*
X0771532Y0382241D02*
X0828518D01*
X0771532Y0394241D02*
X0828518D01*
X0771532Y0406241D02*
X0828518D01*
Y0334241D02*
Y0430241D01*
Y0334241D02*
X0940487D01*
X0828518Y0346241D02*
X0940487D01*
X0828518Y0358241D02*
X0940487D01*
X0828518Y0370241D02*
X0940487D01*
X0828518Y0382241D02*
X0940487D01*
X0828518Y0394241D02*
X0940487D01*
X0828518Y0406241D02*
X0940487D01*
Y0334241D02*
Y0430241D01*
X0486609Y0239388D02*
Y0319911D01*
X0486592Y0320637D02*
X0486609Y0319911D01*
X0486592Y0320637D02*
X0486749Y0322079D01*
X0487092Y0323490D01*
X0487616Y0324843D01*
X0488313Y0326116D01*
X0489170Y0327288D01*
X0490172Y0328338D01*
X0491302Y0329248D01*
X0492542Y0330003D01*
X0493870Y0330589D01*
X0495262Y0330997D01*
X0496697Y0331221D01*
X0497422Y0331238D01*
X0497476Y0331236D01*
X0497533Y0331238D01*
X0522584Y0331238D01*
X0523275Y0331237D01*
X0524625Y0330948D01*
X0525885Y0330384D01*
X0527000Y0329571D01*
X0527461Y0329056D01*
X0527606Y0328894D01*
X0527653Y0328829D01*
X0528707Y0327784D01*
X0529356Y0327245D01*
X0530790Y0326360D01*
X0532365Y0325758D01*
X0534024Y0325462D01*
X0534896Y0325431D01*
X0534954Y0325425D01*
X0535012Y0325412D01*
X0535093Y0325379D01*
X0656035Y0325392D01*
X0656090Y0325412D01*
X0656148Y0325425D01*
X0656236Y0325431D01*
X0657079Y0325462D01*
X0658738Y0325758D01*
X0660312Y0326360D01*
X0661746Y0327245D01*
X0662443Y0327823D01*
X0663455Y0328839D01*
X0663504Y0328902D01*
X0663641Y0329056D01*
X0664090Y0329558D01*
X0665173Y0330357D01*
X0666396Y0330919D01*
X0667708Y0331222D01*
X0668420Y0331238D01*
X0693139D01*
X0693858Y0331254D01*
X0695288Y0331101D01*
X0696686Y0330764D01*
X0698029Y0330249D01*
X0699294Y0329565D01*
X0700460Y0328723D01*
X0701508Y0327738D01*
X0702419Y0326625D01*
X0703178Y0325403D01*
X0703773Y0324094D01*
X0704194Y0322719D01*
X0704434Y0321301D01*
X0704462Y0320574D01*
X0704466Y0320512D01*
X0704467Y0239859D01*
X0704468Y0239795D01*
X0704468Y0239732D01*
X0704469Y0239636D01*
Y0238928D02*
Y0239636D01*
X0704288Y0237523D02*
X0704469Y0238928D01*
X0703930Y0236152D02*
X0704288Y0237523D01*
X0703400Y0234837D02*
X0703930Y0236152D01*
X0702707Y0233601D02*
X0703400Y0234837D01*
X0701862Y0232464D02*
X0702707Y0233601D01*
X0700880Y0231443D02*
X0701862Y0232464D01*
X0699775Y0230556D02*
X0700880Y0231443D01*
X0698566Y0229817D02*
X0699775Y0230556D01*
X0697273Y0229238D02*
X0698566Y0229817D01*
X0695916Y0228829D02*
X0697273Y0229238D01*
X0694519Y0228595D02*
X0695916Y0228829D01*
X0693802Y0228567D02*
X0694519Y0228595D01*
X0693741Y0228563D02*
X0693802Y0228567D01*
X0497936Y0228563D02*
X0693741D01*
X0497223Y0228547D02*
X0497936Y0228563D01*
X0495803Y0228698D02*
X0497223Y0228547D01*
X0494415Y0229029D02*
X0495803Y0228698D01*
X0493081Y0229536D02*
X0494415Y0229029D01*
X0491823Y0230210D02*
X0493081Y0229536D01*
X0490662Y0231040D02*
X0491823Y0230210D01*
X0489617Y0232012D02*
X0490662Y0231040D01*
X0488705Y0233109D02*
X0489617Y0232012D01*
X0487942Y0234315D02*
X0488705Y0233109D01*
X0487340Y0235609D02*
X0487942Y0234315D01*
X0486908Y0236969D02*
X0487340Y0235609D01*
X0486655Y0238374D02*
X0486908Y0236969D01*
X0486613Y0239125D02*
X0486655Y0238374D01*
X0486609Y0239190D02*
X0486613Y0239125D01*
X0486609Y0239190D02*
Y0239388D01*
D54*
X0934487Y0334241D02*
X0940487Y0340241D01*
X0928487Y0334241D02*
X0940487Y0346241D01*
X0922487Y0334241D02*
X0934487Y0346241D01*
X0916487Y0334241D02*
X0928487Y0346241D01*
X0910487Y0334241D02*
X0922487Y0346241D01*
X0904487Y0334241D02*
X0916487Y0346241D01*
X0898487Y0334241D02*
X0910487Y0346241D01*
X0892487Y0334241D02*
X0904487Y0346241D01*
X0886487Y0334241D02*
X0898487Y0346241D01*
X0880487Y0334241D02*
X0892487Y0346241D01*
X0874487Y0334241D02*
X0886487Y0346241D01*
X0868487Y0334241D02*
X0880487Y0346241D01*
X0862487Y0334241D02*
X0874487Y0346241D01*
X0856487Y0334241D02*
X0868487Y0346241D01*
X0850487Y0334241D02*
X0862487Y0346241D01*
X0844487Y0334241D02*
X0856487Y0346241D01*
X0838487Y0334241D02*
X0850487Y0346241D01*
X0832487Y0334241D02*
X0844487Y0346241D01*
X0828518Y0336272D02*
X0838487Y0346241D01*
X0828518Y0342272D02*
X0832487Y0346241D01*
X0934487D02*
X0940487Y0352241D01*
X0928487Y0346241D02*
X0940487Y0358241D01*
X0922487Y0346241D02*
X0934487Y0358241D01*
X0916487Y0346241D02*
X0928487Y0358241D01*
X0910487Y0346241D02*
X0922487Y0358241D01*
X0904487Y0346241D02*
X0916487Y0358241D01*
X0898487Y0346241D02*
X0910487Y0358241D01*
X0892487Y0346241D02*
X0904487Y0358241D01*
X0886487Y0346241D02*
X0898487Y0358241D01*
X0880487Y0346241D02*
X0892487Y0358241D01*
X0874487Y0346241D02*
X0886487Y0358241D01*
X0868487Y0346241D02*
X0880487Y0358241D01*
X0862487Y0346241D02*
X0874487Y0358241D01*
X0856487Y0346241D02*
X0868487Y0358241D01*
X0850487Y0346241D02*
X0862487Y0358241D01*
X0844487Y0346241D02*
X0856487Y0358241D01*
X0838487Y0346241D02*
X0850487Y0358241D01*
X0832487Y0346241D02*
X0844487Y0358241D01*
X0828518Y0348272D02*
X0838487Y0358241D01*
X0828518Y0354272D02*
X0832487Y0358241D01*
X0934487D02*
X0940487Y0364241D01*
X0928487Y0358241D02*
X0940487Y0370241D01*
X0922487Y0358241D02*
X0934487Y0370241D01*
X0916487Y0358241D02*
X0928487Y0370241D01*
X0910487Y0358241D02*
X0922487Y0370241D01*
X0904487Y0358241D02*
X0916487Y0370241D01*
X0898487Y0358241D02*
X0910487Y0370241D01*
X0892487Y0358241D02*
X0904487Y0370241D01*
X0886487Y0358241D02*
X0898487Y0370241D01*
X0880487Y0358241D02*
X0892487Y0370241D01*
X0874487Y0358241D02*
X0886487Y0370241D01*
X0868487Y0358241D02*
X0880487Y0370241D01*
X0862487Y0358241D02*
X0874487Y0370241D01*
X0856487Y0358241D02*
X0868487Y0370241D01*
X0850487Y0358241D02*
X0862487Y0370241D01*
X0844487Y0358241D02*
X0856487Y0370241D01*
X0838487Y0358241D02*
X0850487Y0370241D01*
X0832487Y0358241D02*
X0844487Y0370241D01*
X0828518Y0360272D02*
X0838487Y0370241D01*
X0828518Y0366272D02*
X0832487Y0370241D01*
X0934487D02*
X0940487Y0376241D01*
X0928487Y0370241D02*
X0940487Y0382241D01*
X0922487Y0370241D02*
X0934487Y0382241D01*
X0916487Y0370241D02*
X0928487Y0382241D01*
X0910487Y0370241D02*
X0922487Y0382241D01*
X0904487Y0370241D02*
X0916487Y0382241D01*
X0898487Y0370241D02*
X0910487Y0382241D01*
X0892487Y0370241D02*
X0904487Y0382241D01*
X0886487Y0370241D02*
X0898487Y0382241D01*
X0880487Y0370241D02*
X0892487Y0382241D01*
X0874487Y0370241D02*
X0886487Y0382241D01*
X0868487Y0370241D02*
X0880487Y0382241D01*
X0862487Y0370241D02*
X0874487Y0382241D01*
X0856487Y0370241D02*
X0868487Y0382241D01*
X0850487Y0370241D02*
X0862487Y0382241D01*
X0844487Y0370241D02*
X0856487Y0382241D01*
X0838487Y0370241D02*
X0850487Y0382241D01*
X0832487Y0370241D02*
X0844487Y0382241D01*
X0828518Y0372272D02*
X0838487Y0382241D01*
X0828518Y0378272D02*
X0832487Y0382241D01*
X0934487D02*
X0940487Y0388241D01*
X0928487Y0382241D02*
X0940487Y0394241D01*
X0922487Y0382241D02*
X0934487Y0394241D01*
X0916487Y0382241D02*
X0928487Y0394241D01*
X0910487Y0382241D02*
X0922487Y0394241D01*
X0904487Y0382241D02*
X0916487Y0394241D01*
X0898487Y0382241D02*
X0910487Y0394241D01*
X0892487Y0382241D02*
X0904487Y0394241D01*
X0886487Y0382241D02*
X0898487Y0394241D01*
X0880487Y0382241D02*
X0892487Y0394241D01*
X0874487Y0382241D02*
X0886487Y0394241D01*
X0868487Y0382241D02*
X0880487Y0394241D01*
X0862487Y0382241D02*
X0874487Y0394241D01*
X0856487Y0382241D02*
X0868487Y0394241D01*
X0850487Y0382241D02*
X0862487Y0394241D01*
X0844487Y0382241D02*
X0856487Y0394241D01*
X0838487Y0382241D02*
X0850487Y0394241D01*
X0832487Y0382241D02*
X0844487Y0394241D01*
X0828518Y0384272D02*
X0838487Y0394241D01*
X0828518Y0390272D02*
X0832487Y0394241D01*
X0934487D02*
X0940487Y0400241D01*
X0928487Y0394241D02*
X0940487Y0406241D01*
X0922487Y0394241D02*
X0934487Y0406241D01*
X0916487Y0394241D02*
X0928487Y0406241D01*
X0910487Y0394241D02*
X0922487Y0406241D01*
X0904487Y0394241D02*
X0916487Y0406241D01*
X0898487Y0394241D02*
X0910487Y0406241D01*
X0892487Y0394241D02*
X0904487Y0406241D01*
X0886487Y0394241D02*
X0898487Y0406241D01*
X0880487Y0394241D02*
X0892487Y0406241D01*
X0874487Y0394241D02*
X0886487Y0406241D01*
X0868487Y0394241D02*
X0880487Y0406241D01*
X0862487Y0394241D02*
X0874487Y0406241D01*
X0856487Y0394241D02*
X0868487Y0406241D01*
X0850487Y0394241D02*
X0862487Y0406241D01*
X0844487Y0394241D02*
X0856487Y0406241D01*
X0838487Y0394241D02*
X0850487Y0406241D01*
X0832487Y0394241D02*
X0844487Y0406241D01*
X0828518Y0396272D02*
X0838487Y0406241D01*
X0828518Y0402272D02*
X0832487Y0406241D01*
X0934487D02*
X0940487Y0412241D01*
X0928487Y0406241D02*
X0940487Y0418241D01*
X0922487Y0406241D02*
X0934487Y0418241D01*
X0916487Y0406241D02*
X0928487Y0418241D01*
X0910487Y0406241D02*
X0922487Y0418241D01*
X0904487Y0406241D02*
X0916487Y0418241D01*
X0898487Y0406241D02*
X0910487Y0418241D01*
X0892487Y0406241D02*
X0904487Y0418241D01*
X0886487Y0406241D02*
X0898487Y0418241D01*
X0880487Y0406241D02*
X0892487Y0418241D01*
X0874487Y0406241D02*
X0886487Y0418241D01*
X0868487Y0406241D02*
X0880487Y0418241D01*
X0862487Y0406241D02*
X0874487Y0418241D01*
X0856487Y0406241D02*
X0868487Y0418241D01*
X0850487Y0406241D02*
X0862487Y0418241D01*
X0844487Y0406241D02*
X0856487Y0418241D01*
X0838487Y0406241D02*
X0850487Y0418241D01*
X0832487Y0406241D02*
X0844487Y0418241D01*
X0828518Y0408272D02*
X0838487Y0418241D01*
X0828518Y0414272D02*
X0832487Y0418241D01*
X0692421Y0228500D02*
X0704467Y0240545D01*
X0686421Y0228500D02*
X0704467Y0246545D01*
X0680421Y0228500D02*
X0704467Y0252545D01*
X0674422Y0228500D02*
X0704466Y0258545D01*
X0668422Y0228500D02*
X0704466Y0264545D01*
X0662422Y0228500D02*
X0704466Y0270545D01*
X0656422Y0228500D02*
X0704466Y0276544D01*
X0650421Y0228500D02*
X0704466Y0282544D01*
X0644421Y0228500D02*
X0704466Y0288544D01*
X0638421Y0228500D02*
X0704466Y0294544D01*
X0632421Y0228500D02*
X0704466Y0300544D01*
X0626421Y0228500D02*
X0704466Y0306544D01*
X0620422Y0228500D02*
X0704466Y0312544D01*
X0614422Y0228500D02*
X0704466Y0318544D01*
X0608422Y0228500D02*
X0703848Y0323926D01*
X0602422Y0228500D02*
X0701610Y0327689D01*
X0596421Y0228500D02*
X0698171Y0330249D01*
X0590421Y0228500D02*
X0693224Y0331302D01*
X0584421Y0228500D02*
X0687223Y0331301D01*
X0578421Y0228500D02*
X0681223Y0331301D01*
X0572422Y0228500D02*
X0675223Y0331301D01*
X0566422Y0228500D02*
X0669223Y0331301D01*
X0560422Y0228500D02*
X0657543Y0325621D01*
X0554422Y0228500D02*
X0651390Y0325468D01*
X0548421Y0228500D02*
X0645390Y0325468D01*
X0542421Y0228500D02*
X0639389Y0325467D01*
X0536421Y0228500D02*
X0633388Y0325466D01*
X0530421Y0228500D02*
X0627388Y0325466D01*
X0524422Y0228500D02*
X0621387Y0325465D01*
X0518422Y0228500D02*
X0615386Y0325465D01*
X0512422Y0228500D02*
X0609386Y0325464D01*
X0506422Y0228500D02*
X0603385Y0325463D01*
X0500421Y0228500D02*
X0597384Y0325463D01*
X0494786Y0228864D02*
X0591384Y0325462D01*
X0490792Y0230870D02*
X0585383Y0325461D01*
X0488027Y0234105D02*
X0579383Y0325461D01*
X0486632Y0238710D02*
X0573382Y0325460D01*
X0486609Y0244687D02*
X0567381Y0325459D01*
X0486609Y0250687D02*
X0561381Y0325459D01*
X0486609Y0256687D02*
X0555380Y0325458D01*
X0486609Y0262687D02*
X0549379Y0325457D01*
X0486609Y0268687D02*
X0543379Y0325457D01*
X0486609Y0274687D02*
X0537378Y0325456D01*
X0486609Y0280687D02*
X0531925Y0326003D01*
X0486609Y0286687D02*
X0528243Y0328321D01*
X0486609Y0292687D02*
X0524847Y0330925D01*
X0486609Y0298687D02*
X0519223Y0331301D01*
X0486609Y0304687D02*
X0513223Y0331301D01*
X0486609Y0310687D02*
X0507223Y0331301D01*
X0486609Y0316687D02*
X0501223Y0331301D01*
X0486965Y0323043D02*
X0494885Y0330963D01*
M02*
