G04 Layer_Color=8421504*
%FSAX25Y25*%
%MOIN*%
G70*
G01*
G75*
%ADD10R,0.07087X0.06299*%
%ADD11R,0.06299X0.07087*%
G04:AMPARAMS|DCode=12|XSize=472.44mil|YSize=157.48mil|CornerRadius=39.37mil|HoleSize=0mil|Usage=FLASHONLY|Rotation=0.000|XOffset=0mil|YOffset=0mil|HoleType=Round|Shape=RoundedRectangle|*
%AMROUNDEDRECTD12*
21,1,0.47244,0.07874,0,0,0.0*
21,1,0.39370,0.15748,0,0,0.0*
1,1,0.07874,0.19685,-0.03937*
1,1,0.07874,-0.19685,-0.03937*
1,1,0.07874,-0.19685,0.03937*
1,1,0.07874,0.19685,0.03937*
%
%ADD12ROUNDEDRECTD12*%
%ADD13R,0.47244X0.07500*%
%ADD14O,0.06061X0.02362*%
%ADD15R,0.09055X0.09055*%
D10*
X0245600Y0284812D02*
D03*
Y0273788D02*
D03*
X0269700Y0237388D02*
D03*
Y0248412D02*
D03*
X0279100D02*
D03*
Y0237388D02*
D03*
X0286900Y0275512D02*
D03*
Y0264488D02*
D03*
D11*
X0247388Y0254400D02*
D03*
X0258412D02*
D03*
X0253988Y0263700D02*
D03*
X0265012D02*
D03*
X0290112Y0255800D02*
D03*
X0279088D02*
D03*
X0306912Y0275000D02*
D03*
X0295888D02*
D03*
X0307312Y0264500D02*
D03*
X0296288D02*
D03*
X0256188Y0299000D02*
D03*
X0267212D02*
D03*
X0328812Y0238800D02*
D03*
X0317788D02*
D03*
X0349912D02*
D03*
X0338888D02*
D03*
D12*
X0337500Y0304200D02*
D03*
Y0263500D02*
D03*
D13*
Y0269600D02*
D03*
Y0298400D02*
D03*
D14*
X0257500Y0286900D02*
D03*
Y0281900D02*
D03*
Y0276900D02*
D03*
Y0271900D02*
D03*
X0278500Y0286900D02*
D03*
Y0281900D02*
D03*
Y0271900D02*
D03*
Y0276900D02*
D03*
D15*
X0296758Y0298913D02*
D03*
X0279042D02*
D03*
M02*
