G04 Layer_Physical_Order=2*
G04 Layer_Color=16711680*
%FSAX25Y25*%
%MOIN*%
G70*
G01*
G75*
%ADD10R,0.07087X0.06299*%
%ADD11R,0.06299X0.07087*%
%ADD15R,0.09055X0.09055*%
%ADD20C,0.06000*%
%ADD24R,0.12598X0.10000*%
%ADD25R,0.10000X0.10000*%
%ADD26C,0.23622*%
%ADD27C,0.05000*%
%ADD28R,0.06000X0.12000*%
%ADD29R,0.09449X0.10236*%
%ADD30C,0.06500*%
%ADD31R,0.06000X0.06700*%
%ADD32R,0.22300X0.18500*%
G36*
X0394066Y0332971D02*
X0393029Y0332722D01*
X0391166Y0331950D01*
X0389447Y0330896D01*
X0387913Y0329587D01*
X0386604Y0328053D01*
X0385550Y0326334D01*
X0384778Y0324471D01*
X0384308Y0322510D01*
X0384149Y0320500D01*
X0384308Y0318490D01*
X0384778Y0316529D01*
X0385550Y0314666D01*
X0386604Y0312947D01*
X0387913Y0311413D01*
X0389447Y0310104D01*
X0391166Y0309050D01*
X0393029Y0308278D01*
X0394990Y0307808D01*
X0397000Y0307649D01*
X0399010Y0307808D01*
X0400971Y0308278D01*
X0402834Y0309050D01*
X0404553Y0310104D01*
X0406087Y0311413D01*
X0407396Y0312947D01*
X0408450Y0314666D01*
X0409222Y0316529D01*
X0409692Y0318490D01*
X0409771Y0319483D01*
X0410271Y0319464D01*
Y0248036D01*
X0409771Y0248017D01*
X0409692Y0249010D01*
X0409222Y0250971D01*
X0408450Y0252834D01*
X0407396Y0254553D01*
X0406087Y0256087D01*
X0404553Y0257396D01*
X0402834Y0258450D01*
X0400971Y0259222D01*
X0399010Y0259692D01*
X0397000Y0259851D01*
X0394990Y0259692D01*
X0393029Y0259222D01*
X0391166Y0258450D01*
X0389447Y0257396D01*
X0387913Y0256087D01*
X0386604Y0254553D01*
X0385550Y0252834D01*
X0384778Y0250971D01*
X0384308Y0249010D01*
X0384149Y0247000D01*
X0384308Y0244990D01*
X0384778Y0243029D01*
X0385550Y0241166D01*
X0386604Y0239447D01*
X0387913Y0237913D01*
X0389447Y0236604D01*
X0391166Y0235550D01*
X0393029Y0234778D01*
X0393649Y0234629D01*
X0393590Y0234129D01*
X0211410D01*
X0211351Y0234629D01*
X0211971Y0234778D01*
X0213834Y0235550D01*
X0215553Y0236604D01*
X0217087Y0237913D01*
X0218396Y0239447D01*
X0219450Y0241166D01*
X0220222Y0243029D01*
X0220692Y0244990D01*
X0220851Y0247000D01*
X0220692Y0249010D01*
X0220222Y0250971D01*
X0219450Y0252834D01*
X0218396Y0254553D01*
X0217087Y0256087D01*
X0215553Y0257396D01*
X0213834Y0258450D01*
X0211971Y0259222D01*
X0210010Y0259692D01*
X0208000Y0259851D01*
X0205990Y0259692D01*
X0204029Y0259222D01*
X0202166Y0258450D01*
X0200447Y0257396D01*
X0198913Y0256087D01*
X0197604Y0254553D01*
X0196550Y0252834D01*
X0195778Y0250971D01*
X0195429Y0249518D01*
X0194929Y0249577D01*
Y0317923D01*
X0195429Y0317982D01*
X0195778Y0316529D01*
X0196550Y0314666D01*
X0197604Y0312947D01*
X0198913Y0311413D01*
X0200447Y0310104D01*
X0202166Y0309050D01*
X0204029Y0308278D01*
X0205990Y0307808D01*
X0208000Y0307649D01*
X0210010Y0307808D01*
X0211971Y0308278D01*
X0213834Y0309050D01*
X0215553Y0310104D01*
X0217087Y0311413D01*
X0218396Y0312947D01*
X0219450Y0314666D01*
X0220222Y0316529D01*
X0220692Y0318490D01*
X0220851Y0320500D01*
X0220692Y0322510D01*
X0220222Y0324471D01*
X0219450Y0326334D01*
X0218396Y0328053D01*
X0217087Y0329587D01*
X0215553Y0330896D01*
X0213834Y0331950D01*
X0211971Y0332722D01*
X0210934Y0332971D01*
X0210993Y0333471D01*
X0228625D01*
X0229123Y0333471D01*
X0229605Y0333426D01*
X0230311Y0333333D01*
X0231417Y0332875D01*
X0232367Y0332146D01*
X0232522Y0331945D01*
X0232522Y0331945D01*
X0232719Y0331719D01*
X0233565Y0330872D01*
X0233819Y0330619D01*
X0233870Y0330580D01*
X0233876Y0330572D01*
X0233933Y0330533D01*
X0233938Y0330539D01*
X0233964Y0330521D01*
X0234886Y0329734D01*
X0236369Y0328825D01*
X0237975Y0328160D01*
X0239666Y0327754D01*
X0241010Y0327648D01*
X0241400Y0327571D01*
X0363700D01*
X0364007Y0327632D01*
X0365561Y0327754D01*
X0367252Y0328160D01*
X0368859Y0328825D01*
X0370341Y0329734D01*
X0371263Y0330521D01*
X0371289Y0330539D01*
X0371294Y0330533D01*
X0371352Y0330572D01*
X0371357Y0330580D01*
X0371409Y0330619D01*
X0371662Y0330872D01*
X0372369Y0331579D01*
X0372509Y0331718D01*
X0372706Y0331945D01*
X0373051Y0332292D01*
X0373810Y0332875D01*
X0374916Y0333333D01*
X0375622Y0333426D01*
X0376104Y0333471D01*
X0376600Y0333471D01*
X0376601Y0333471D01*
X0394007D01*
X0394066Y0332971D01*
D02*
G37*
%LPC*%
G36*
X0378100Y0296687D02*
X0376991Y0296541D01*
X0375957Y0296112D01*
X0375069Y0295431D01*
X0374388Y0294543D01*
X0373959Y0293510D01*
X0373813Y0292400D01*
Y0290900D01*
X0373959Y0289791D01*
X0374328Y0288900D01*
X0374091Y0288400D01*
X0316300D01*
Y0265300D01*
X0315100Y0264100D01*
X0317876D01*
Y0261871D01*
X0329324D01*
Y0263366D01*
X0336180D01*
Y0249400D01*
X0336258Y0249010D01*
X0336479Y0248679D01*
X0336810Y0248458D01*
X0337200Y0248380D01*
X0340127D01*
X0340586Y0248190D01*
X0341500Y0248070D01*
X0342414Y0248190D01*
X0342873Y0248380D01*
X0347660D01*
X0348500Y0248270D01*
X0349340Y0248380D01*
X0354327D01*
X0354786Y0248190D01*
X0355700Y0248070D01*
X0356614Y0248190D01*
X0357073Y0248380D01*
X0359500D01*
X0359890Y0248458D01*
X0360221Y0248679D01*
X0360442Y0249010D01*
X0360520Y0249400D01*
Y0263366D01*
X0367900D01*
X0367900Y0263366D01*
X0368944Y0263503D01*
X0369917Y0263906D01*
X0370753Y0264547D01*
X0374606Y0268400D01*
X0376700D01*
Y0270494D01*
X0377006Y0270800D01*
X0389099D01*
Y0281000D01*
X0389900D01*
Y0288300D01*
X0389800Y0288400D01*
X0382109D01*
X0381872Y0288900D01*
X0382241Y0289791D01*
X0382387Y0290900D01*
Y0292400D01*
X0382241Y0293510D01*
X0381812Y0294543D01*
X0381131Y0295431D01*
X0380243Y0296112D01*
X0379209Y0296541D01*
X0378100Y0296687D01*
D02*
G37*
G36*
X0233200Y0298287D02*
X0232090Y0298141D01*
X0231057Y0297712D01*
X0230169Y0297031D01*
X0228069Y0294931D01*
X0227388Y0294043D01*
X0226959Y0293009D01*
X0226813Y0291900D01*
X0226945Y0290900D01*
X0226652Y0290400D01*
X0215700D01*
X0215600Y0290500D01*
Y0269800D01*
X0225099D01*
X0225596Y0269381D01*
X0225404Y0241760D01*
X0225400Y0241200D01*
X0225400Y0241200D01*
X0225514Y0240747D01*
Y0239985D01*
X0236569D01*
Y0241300D01*
X0243231D01*
Y0239985D01*
X0254286D01*
Y0241300D01*
X0255000D01*
X0255400Y0241700D01*
Y0290400D01*
X0252138D01*
Y0294043D01*
X0243839D01*
Y0290400D01*
X0236315D01*
X0236124Y0290862D01*
X0236231Y0290969D01*
X0236912Y0291857D01*
X0237341Y0292891D01*
X0237487Y0294000D01*
X0237341Y0295110D01*
X0236912Y0296143D01*
X0236231Y0297031D01*
X0235343Y0297712D01*
X0234310Y0298141D01*
X0233200Y0298287D01*
D02*
G37*
%LPD*%
D10*
X0358300Y0286212D02*
D03*
Y0275188D02*
D03*
D11*
X0259012Y0289500D02*
D03*
X0247988D02*
D03*
D15*
X0231042Y0245513D02*
D03*
X0248758D02*
D03*
D20*
X0358300Y0275188D02*
X0358500Y0274988D01*
X0323600Y0267400D02*
Y0267989D01*
X0358300Y0267400D02*
X0367900D01*
X0358300D02*
Y0275188D01*
X0323600Y0267400D02*
X0358300D01*
X0367900D02*
X0376500Y0276000D01*
X0383000D01*
D24*
X0381800Y0276800D02*
D03*
X0381500Y0292100D02*
D03*
X0223400Y0291160D02*
D03*
X0223700Y0275860D02*
D03*
D25*
X0370700Y0274400D02*
D03*
Y0294200D02*
D03*
X0234500Y0293560D02*
D03*
Y0273760D02*
D03*
D26*
X0397000Y0247000D02*
D03*
Y0320500D02*
D03*
X0208000D02*
D03*
Y0247000D02*
D03*
D27*
X0250900Y0283000D02*
D03*
X0307000Y0298000D02*
D03*
X0305100Y0238900D02*
D03*
X0270900Y0282500D02*
D03*
X0265600D02*
D03*
Y0271500D02*
D03*
X0270900D02*
D03*
Y0277000D02*
D03*
X0265600D02*
D03*
Y0288000D02*
D03*
X0270900D02*
D03*
X0355700Y0251600D02*
D03*
X0348500Y0251800D02*
D03*
X0341500Y0251600D02*
D03*
D28*
X0262702Y0274000D02*
D03*
X0248498D02*
D03*
X0262802Y0260200D02*
D03*
X0248598D02*
D03*
D29*
X0323600Y0267989D02*
D03*
Y0293186D02*
D03*
X0344300Y0268002D02*
D03*
Y0293198D02*
D03*
D30*
X0231100Y0291900D02*
X0233200Y0294000D01*
X0231042Y0245513D02*
Y0272602D01*
X0378100Y0290900D02*
Y0292400D01*
X0247958Y0245513D02*
Y0285100D01*
D31*
X0247700Y0285650D02*
D03*
D32*
X0348350Y0258650D02*
D03*
M02*
