M48
;Layer_Color=9474304
;FILE_FORMAT=2:5
INCH
;TYPE=PLATED
T1F00S00C0.02800
T2F00S00C0.05906
T3F00S00C0.07874
T4F00S00C0.13780
%
T01
X0341500Y0251600
X0348500Y0251800
X0355700Y0251600
X0305100Y0238900
X0307000Y0298000
X0270900Y0288000
X0265600
Y0282500
X0270900
Y0277000
X0265600
Y0271500
X0270900
X0250900Y0283000
T02
X0370700Y0274400
Y0294200
X0234500Y0293560
Y0273760
T03
X0381800Y0276800
X0381500Y0292100
X0223400Y0291160
X0223700Y0275860
T04
X0397000Y0247000
X0208000
Y0320500
X0397000
M30
